<svg xmlns="http://www.w3.org/2000/svg" data-name="Layer 1" viewBox="0 0 32 32"><path fill="#aeadb3" d="m31.5 15.5-9-11-2 1.98 1 2 1-.98 8 11M.5 15.5l9-11 2 1.98-1 2-1-.98-8 11"/><path fill="#e1e1e3" d="M31.5 25.5H18.41l-1.53-2.8a1 1 0 0 0-1.76 0l-1.53 2.8H.5v-10h31Z"/><path fill="#c8c5cc" d="M30.5 15.5h1v10h-1z"/><path fill="#469ed6" d="M11.5 23.5h-9v-6h11V20l-2 3.5z"/><path fill="#227fc0" d="M12.5 17.5V20l-2 3.5h1l2-3.5v-2.5h-1z"/><path fill="#ed4769" d="M20.5 23.5h9v-6h-11V20l2 3.5z"/><path fill="#eb304a" d="M28.5 17.5h1v6h-1z"/><path d="M32 15.17V15h-.13L22.65 3.76 20 6.38l1.47 2.94 1.08-1.06L27.46 15H4.54l4.91-6.74 1.08 1.06L12 6.38 9.35 3.76.14 15H0v11h13.88l1.67-3a.52.52 0 0 1 .9 0l1.67 3H32V15.19Zm-9.32-8.43-.93.9-.53-1.06 1.35-1.34 8 9.77h-1.88ZM9.43 5.24l1.35 1.34-.53 1.06-.93-.9L3.31 15H1.44ZM31 25H18.7l-1.39-2.54a1.49 1.49 0 0 0-2.62 0L13.3 25H1v-9h30Zm-1-1v-7H18v3.13L20.21 24Zm-11-6h10v5h-8.21L19 19.87Zm-5 2.13V17H2v7h9.79ZM3 23v-5h10v1.87L11.21 23Z"/></svg>